<svg width="39" height="20" viewBox="0 0 39 20" fill="none" xmlns="http://www.w3.org/2000/svg">
<rect width="39" height="20" rx="2" fill="#FFB800"/>
<path d="M9.49219 10.9473H6.41602V9.79883H9.49219V10.9473ZM15.3926 10.959H16.4531V12.1016H15.3926V14H13.9688V12.1016H10.2832L10.2422 11.2344L13.9219 5.46875H15.3926V10.959ZM11.7363 10.959H13.9688V7.39648L13.8633 7.58398L11.7363 10.959ZM22.957 10.4082C22.957 11.6348 22.7266 12.5605 22.2656 13.1855C21.8086 13.8066 21.1113 14.1172 20.1738 14.1172C19.252 14.1172 18.5566 13.8145 18.0879 13.209C17.623 12.5996 17.3848 11.6992 17.373 10.5078V9.03125C17.373 7.80469 17.6016 6.88477 18.0586 6.27148C18.5195 5.6582 19.2207 5.35156 20.1621 5.35156C21.0957 5.35156 21.791 5.65039 22.248 6.24805C22.709 6.8457 22.9453 7.74023 22.957 8.93164V10.4082ZM21.5332 8.81445C21.5332 8.01367 21.4238 7.42773 21.2051 7.05664C20.9863 6.68164 20.6387 6.49414 20.1621 6.49414C19.6973 6.49414 19.3555 6.67188 19.1367 7.02734C18.918 7.37891 18.8027 7.92969 18.791 8.67969V10.6133C18.791 11.4102 18.9023 12.0039 19.125 12.3945C19.3477 12.7852 19.6973 12.9805 20.1738 12.9805C20.6309 12.9805 20.9688 12.8008 21.1875 12.4414C21.4062 12.0781 21.5215 11.5117 21.5332 10.7422V8.81445ZM24.1582 7.10938C24.1582 6.59375 24.3242 6.17188 24.6562 5.84375C24.9883 5.51172 25.4238 5.3457 25.9629 5.3457C26.5098 5.3457 26.9473 5.51172 27.2754 5.84375C27.6074 6.17188 27.7734 6.60352 27.7734 7.13867V7.56055C27.7734 8.07227 27.6074 8.49219 27.2754 8.82031C26.9473 9.14844 26.5137 9.3125 25.9746 9.3125C25.4473 9.3125 25.0117 9.15234 24.668 8.83203C24.3281 8.50781 24.1582 8.07227 24.1582 7.52539V7.10938ZM25.1543 7.56055C25.1543 7.83008 25.2285 8.04883 25.377 8.2168C25.5293 8.38086 25.7285 8.46289 25.9746 8.46289C26.2168 8.46289 26.4121 8.38086 26.5605 8.2168C26.709 8.04883 26.7832 7.82227 26.7832 7.53711V7.10938C26.7832 6.83984 26.707 6.62109 26.5547 6.45312C26.4062 6.28516 26.209 6.20117 25.9629 6.20117C25.7168 6.20117 25.5195 6.28711 25.3711 6.45898C25.2266 6.62695 25.1543 6.84961 25.1543 7.12695V7.56055ZM28.2598 11.9082C28.2598 11.3848 28.4297 10.9609 28.7695 10.6367C29.1094 10.3125 29.543 10.1504 30.0703 10.1504C30.6016 10.1504 31.0352 10.3125 31.3711 10.6367C31.7109 10.9609 31.8809 11.3984 31.8809 11.9492V12.3652C31.8809 12.873 31.7168 13.293 31.3887 13.625C31.0645 13.9531 30.6289 14.1172 30.082 14.1172C29.5352 14.1172 29.0938 13.9551 28.7578 13.6309C28.4258 13.3027 28.2598 12.8711 28.2598 12.3359V11.9082ZM29.2559 12.3652C29.2559 12.6309 29.332 12.8496 29.4844 13.0215C29.6406 13.1895 29.8398 13.2734 30.082 13.2734C30.332 13.2734 30.5273 13.1934 30.668 13.0332C30.8125 12.8691 30.8848 12.6406 30.8848 12.3477V11.9082C30.8848 11.6348 30.8086 11.416 30.6562 11.252C30.5039 11.0879 30.3086 11.0059 30.0703 11.0059C29.8281 11.0059 29.6309 11.0879 29.4785 11.252C29.3301 11.416 29.2559 11.6426 29.2559 11.9316V12.3652ZM26.2676 13.3613L25.5352 12.9395L29.7012 6.27148L30.4336 6.69336L26.2676 13.3613Z" fill="white"/>
</svg>
